<mxfile host="app.diagrams.net" modified="2024-03-05T16:16:31.681Z" agent="Mozilla/5.0 (Windows NT 10.0; Win64; x64) AppleWebKit/537.36 (KHTML, like Gecko) Chrome/122.0.0.0 Safari/537.36" etag="0PzsoWGldT3kyOAQXBhg" version="23.1.6" type="github">
  <diagram name="Page-1" id="-ti8Vwm0ZAQlgcw2IOau">
    <mxGraphModel dx="1114" dy="525" grid="1" gridSize="10" guides="1" tooltips="1" connect="1" arrows="1" fold="1" page="1" pageScale="1" pageWidth="850" pageHeight="1100" math="0" shadow="0">
      <root>
        <mxCell id="0" />
        <mxCell id="1" parent="0" />
        <mxCell id="4n3yPjEWY9yg18HthSz6-5" value="" style="edgeStyle=orthogonalEdgeStyle;rounded=0;orthogonalLoop=1;jettySize=auto;html=1;" edge="1" parent="1" source="4n3yPjEWY9yg18HthSz6-1" target="4n3yPjEWY9yg18HthSz6-4">
          <mxGeometry relative="1" as="geometry" />
        </mxCell>
        <mxCell id="4n3yPjEWY9yg18HthSz6-1" value="Start" style="html=1;dashed=0;whiteSpace=wrap;shape=mxgraph.dfd.start" vertex="1" parent="1">
          <mxGeometry x="280" y="85" width="110" height="40" as="geometry" />
        </mxCell>
        <mxCell id="4n3yPjEWY9yg18HthSz6-7" value="" style="edgeStyle=orthogonalEdgeStyle;rounded=0;orthogonalLoop=1;jettySize=auto;html=1;" edge="1" parent="1" source="4n3yPjEWY9yg18HthSz6-4" target="4n3yPjEWY9yg18HthSz6-6">
          <mxGeometry relative="1" as="geometry" />
        </mxCell>
        <mxCell id="4n3yPjEWY9yg18HthSz6-4" value="Inisiasi sensor DSM501A dan ESP" style="shape=hexagon;perimeter=hexagonPerimeter2;whiteSpace=wrap;html=1;fixedSize=1;dashed=0;" vertex="1" parent="1">
          <mxGeometry x="275" y="153" width="120" height="57" as="geometry" />
        </mxCell>
        <mxCell id="4n3yPjEWY9yg18HthSz6-9" value="" style="edgeStyle=orthogonalEdgeStyle;rounded=0;orthogonalLoop=1;jettySize=auto;html=1;" edge="1" parent="1" source="4n3yPjEWY9yg18HthSz6-6" target="4n3yPjEWY9yg18HthSz6-8">
          <mxGeometry relative="1" as="geometry" />
        </mxCell>
        <mxCell id="4n3yPjEWY9yg18HthSz6-6" value="&lt;font style=&quot;font-size: 11px;&quot;&gt;inisialisasi variabel densitas_debu dan kondisi_filter&lt;/font&gt;" style="shape=hexagon;perimeter=hexagonPerimeter2;whiteSpace=wrap;html=1;fixedSize=1;dashed=0;" vertex="1" parent="1">
          <mxGeometry x="272.88" y="242" width="123.25" height="60" as="geometry" />
        </mxCell>
        <mxCell id="4n3yPjEWY9yg18HthSz6-11" value="" style="edgeStyle=orthogonalEdgeStyle;rounded=0;orthogonalLoop=1;jettySize=auto;html=1;" edge="1" parent="1" source="4n3yPjEWY9yg18HthSz6-8" target="4n3yPjEWY9yg18HthSz6-10">
          <mxGeometry relative="1" as="geometry" />
        </mxCell>
        <mxCell id="4n3yPjEWY9yg18HthSz6-8" value="Konfigurasi wifi dengan ESP" style="whiteSpace=wrap;html=1;dashed=0;" vertex="1" parent="1">
          <mxGeometry x="286.76" y="330" width="95.5" height="37" as="geometry" />
        </mxCell>
        <mxCell id="4n3yPjEWY9yg18HthSz6-13" value="" style="edgeStyle=orthogonalEdgeStyle;rounded=0;orthogonalLoop=1;jettySize=auto;html=1;" edge="1" parent="1" source="4n3yPjEWY9yg18HthSz6-10" target="4n3yPjEWY9yg18HthSz6-12">
          <mxGeometry relative="1" as="geometry" />
        </mxCell>
        <mxCell id="4n3yPjEWY9yg18HthSz6-10" value="Konversi satuan dari sensor ke&amp;nbsp;µg/m³ dan memasukannya ke variabel densitas_debu" style="whiteSpace=wrap;html=1;dashed=0;" vertex="1" parent="1">
          <mxGeometry x="263.53" y="398" width="141.97" height="70" as="geometry" />
        </mxCell>
        <mxCell id="4n3yPjEWY9yg18HthSz6-15" value="" style="edgeStyle=orthogonalEdgeStyle;rounded=0;orthogonalLoop=1;jettySize=auto;html=1;" edge="1" parent="1" source="4n3yPjEWY9yg18HthSz6-12" target="4n3yPjEWY9yg18HthSz6-14">
          <mxGeometry relative="1" as="geometry" />
        </mxCell>
        <mxCell id="4n3yPjEWY9yg18HthSz6-20" value="" style="edgeStyle=orthogonalEdgeStyle;rounded=0;orthogonalLoop=1;jettySize=auto;html=1;" edge="1" parent="1" source="4n3yPjEWY9yg18HthSz6-12" target="4n3yPjEWY9yg18HthSz6-19">
          <mxGeometry relative="1" as="geometry" />
        </mxCell>
        <mxCell id="4n3yPjEWY9yg18HthSz6-12" value="densitas_debu&amp;lt;=150?" style="rhombus;whiteSpace=wrap;html=1;dashed=0;" vertex="1" parent="1">
          <mxGeometry x="268.63" y="500" width="132.74" height="87" as="geometry" />
        </mxCell>
        <mxCell id="4n3yPjEWY9yg18HthSz6-14" value="kondisi_filter = baik" style="whiteSpace=wrap;html=1;dashed=0;" vertex="1" parent="1">
          <mxGeometry x="425" y="528.5" width="79.5" height="30" as="geometry" />
        </mxCell>
        <mxCell id="4n3yPjEWY9yg18HthSz6-16" value="Ya" style="text;html=1;align=center;verticalAlign=middle;resizable=0;points=[];autosize=1;strokeColor=none;fillColor=none;" vertex="1" parent="1">
          <mxGeometry x="387.26" y="520" width="40" height="30" as="geometry" />
        </mxCell>
        <mxCell id="4n3yPjEWY9yg18HthSz6-23" value="" style="edgeStyle=orthogonalEdgeStyle;rounded=0;orthogonalLoop=1;jettySize=auto;html=1;" edge="1" parent="1" source="4n3yPjEWY9yg18HthSz6-19" target="4n3yPjEWY9yg18HthSz6-22">
          <mxGeometry relative="1" as="geometry" />
        </mxCell>
        <mxCell id="4n3yPjEWY9yg18HthSz6-25" value="" style="edgeStyle=orthogonalEdgeStyle;rounded=0;orthogonalLoop=1;jettySize=auto;html=1;" edge="1" parent="1" source="4n3yPjEWY9yg18HthSz6-19" target="4n3yPjEWY9yg18HthSz6-24">
          <mxGeometry relative="1" as="geometry" />
        </mxCell>
        <mxCell id="4n3yPjEWY9yg18HthSz6-19" value="densitas_debu&amp;lt;=420?" style="rhombus;whiteSpace=wrap;html=1;dashed=0;" vertex="1" parent="1">
          <mxGeometry x="263" y="620.01" width="142.5" height="79.5" as="geometry" />
        </mxCell>
        <mxCell id="4n3yPjEWY9yg18HthSz6-21" value="Tidak" style="text;html=1;align=center;verticalAlign=middle;resizable=0;points=[];autosize=1;strokeColor=none;fillColor=none;" vertex="1" parent="1">
          <mxGeometry x="282.5" y="587" width="50" height="30" as="geometry" />
        </mxCell>
        <mxCell id="4n3yPjEWY9yg18HthSz6-22" value="kondisi_filter = tidak sehat" style="whiteSpace=wrap;html=1;dashed=0;" vertex="1" parent="1">
          <mxGeometry x="425" y="644.63" width="70" height="30.25" as="geometry" />
        </mxCell>
        <mxCell id="4n3yPjEWY9yg18HthSz6-29" value="" style="edgeStyle=orthogonalEdgeStyle;rounded=0;orthogonalLoop=1;jettySize=auto;html=1;" edge="1" parent="1" source="4n3yPjEWY9yg18HthSz6-24" target="4n3yPjEWY9yg18HthSz6-28">
          <mxGeometry relative="1" as="geometry" />
        </mxCell>
        <mxCell id="4n3yPjEWY9yg18HthSz6-24" value="densitas_debu &amp;gt; 420" style="rhombus;whiteSpace=wrap;html=1;dashed=0;" vertex="1" parent="1">
          <mxGeometry x="271.25" y="730" width="127.5" height="80.75" as="geometry" />
        </mxCell>
        <mxCell id="4n3yPjEWY9yg18HthSz6-26" value="Ya" style="text;html=1;align=center;verticalAlign=middle;resizable=0;points=[];autosize=1;strokeColor=none;fillColor=none;" vertex="1" parent="1">
          <mxGeometry x="390" y="740" width="40" height="30" as="geometry" />
        </mxCell>
        <mxCell id="4n3yPjEWY9yg18HthSz6-27" value="Ya" style="text;html=1;align=center;verticalAlign=middle;resizable=0;points=[];autosize=1;strokeColor=none;fillColor=none;" vertex="1" parent="1">
          <mxGeometry x="390" y="630" width="40" height="30" as="geometry" />
        </mxCell>
        <mxCell id="4n3yPjEWY9yg18HthSz6-28" value="Kondisi_filter=Berbahaya" style="whiteSpace=wrap;html=1;dashed=0;" vertex="1" parent="1">
          <mxGeometry x="425" y="750.56" width="137.5" height="39.63" as="geometry" />
        </mxCell>
        <mxCell id="4n3yPjEWY9yg18HthSz6-30" value="" style="endArrow=classic;html=1;rounded=0;" edge="1" parent="1">
          <mxGeometry width="50" height="50" relative="1" as="geometry">
            <mxPoint x="510" y="540" as="sourcePoint" />
            <mxPoint x="610" y="840" as="targetPoint" />
            <Array as="points">
              <mxPoint x="610" y="540" />
            </Array>
          </mxGeometry>
        </mxCell>
        <mxCell id="4n3yPjEWY9yg18HthSz6-32" value="" style="endArrow=none;html=1;rounded=0;exitX=1;exitY=0.5;exitDx=0;exitDy=0;" edge="1" parent="1" source="4n3yPjEWY9yg18HthSz6-22">
          <mxGeometry width="50" height="50" relative="1" as="geometry">
            <mxPoint x="530" y="680" as="sourcePoint" />
            <mxPoint x="610" y="660" as="targetPoint" />
          </mxGeometry>
        </mxCell>
        <mxCell id="4n3yPjEWY9yg18HthSz6-33" value="" style="endArrow=none;html=1;rounded=0;exitX=1;exitY=0.5;exitDx=0;exitDy=0;" edge="1" parent="1" source="4n3yPjEWY9yg18HthSz6-28">
          <mxGeometry width="50" height="50" relative="1" as="geometry">
            <mxPoint x="400" y="750" as="sourcePoint" />
            <mxPoint x="610" y="770" as="targetPoint" />
          </mxGeometry>
        </mxCell>
        <mxCell id="4n3yPjEWY9yg18HthSz6-36" value="" style="edgeStyle=orthogonalEdgeStyle;rounded=0;orthogonalLoop=1;jettySize=auto;html=1;" edge="1" parent="1" source="4n3yPjEWY9yg18HthSz6-34" target="4n3yPjEWY9yg18HthSz6-35">
          <mxGeometry relative="1" as="geometry" />
        </mxCell>
        <mxCell id="4n3yPjEWY9yg18HthSz6-34" value="Mengirim data densitas udara dan kondisi filter ke web server" style="rounded=0;whiteSpace=wrap;html=1;" vertex="1" parent="1">
          <mxGeometry x="548.5" y="840" width="127.5" height="40" as="geometry" />
        </mxCell>
        <mxCell id="4n3yPjEWY9yg18HthSz6-40" value="" style="edgeStyle=orthogonalEdgeStyle;rounded=0;orthogonalLoop=1;jettySize=auto;html=1;" edge="1" parent="1" source="4n3yPjEWY9yg18HthSz6-35" target="4n3yPjEWY9yg18HthSz6-37">
          <mxGeometry relative="1" as="geometry" />
        </mxCell>
        <mxCell id="4n3yPjEWY9yg18HthSz6-35" value="Menampilkan densitas udara dan kondisi filter pada halaman web" style="shape=parallelogram;perimeter=parallelogramPerimeter;whiteSpace=wrap;html=1;fixedSize=1;rounded=0;" vertex="1" parent="1">
          <mxGeometry x="538.38" y="920" width="147.75" height="50" as="geometry" />
        </mxCell>
        <mxCell id="4n3yPjEWY9yg18HthSz6-37" value="Stop" style="html=1;dashed=0;whiteSpace=wrap;shape=mxgraph.dfd.start" vertex="1" parent="1">
          <mxGeometry x="557.25" y="1000" width="110" height="40" as="geometry" />
        </mxCell>
        <mxCell id="4n3yPjEWY9yg18HthSz6-41" value="Tidak" style="text;html=1;align=center;verticalAlign=middle;resizable=0;points=[];autosize=1;strokeColor=none;fillColor=none;" vertex="1" parent="1">
          <mxGeometry x="286.76" y="699.51" width="50" height="30" as="geometry" />
        </mxCell>
      </root>
    </mxGraphModel>
  </diagram>
</mxfile>
